<?xml version="1.0" encoding="UTF-8" standalone="no"?>
<!-- Created using Karbon, part of Calligra: http://www.calligra.org/karbon -->

<svg
   xmlns:dc="http://purl.org/dc/elements/1.1/"
   xmlns:cc="http://creativecommons.org/ns#"
   xmlns:rdf="http://www.w3.org/1999/02/22-rdf-syntax-ns#"
   xmlns:svg="http://www.w3.org/2000/svg"
   xmlns="http://www.w3.org/2000/svg"
   xmlns:sodipodi="http://sodipodi.sourceforge.net/DTD/sodipodi-0.dtd"
   xmlns:inkscape="http://www.inkscape.org/namespaces/inkscape"
   width="19.2pt"
   height="19.2pt"
   id="svg2"
   version="1.1"
   inkscape:version="0.91 r13725"
   sodipodi:docname="tomatoes.svg">
  <metadata
     id="metadata40">
    <rdf:RDF>
      <cc:Work
         rdf:about="">
        <dc:format>image/svg+xml</dc:format>
        <dc:type
           rdf:resource="http://purl.org/dc/dcmitype/StillImage" />
      </cc:Work>
    </rdf:RDF>
  </metadata>
  <defs
     id="defs38" />
  <sodipodi:namedview
     pagecolor="#ffffff"
     bordercolor="#666666"
     borderopacity="1"
     objecttolerance="10"
     gridtolerance="10"
     guidetolerance="10"
     inkscape:pageopacity="0"
     inkscape:pageshadow="2"
     inkscape:window-width="1808"
     inkscape:window-height="800"
     id="namedview36"
     showgrid="false"
     inkscape:zoom="9.8333329"
     inkscape:cx="12"
     inkscape:cy="12"
     inkscape:window-x="0"
     inkscape:window-y="34"
     inkscape:window-maximized="0"
     inkscape:current-layer="layer1" />
  <g
     id="layer1">
    <g
       id="tomatoid-running"
       transform="translate(-0.591553, -0.607)"
       fill="none">
      <path
         id="path4201"
         transform="translate(1.74856, 2.88754)"
         fill="#000000"
         d="M11.034 0.000759623C10.6266 -0.0102404 9.27928 0.0967596 8.30766 0.41766C8.29806 0.41766 8.28513 0.41766 8.27559 0.41766C8.15012 0.43666 7.82815 0.48166 7.6341 0.48166C7.6252 0.48166 7.61092 0.48166 7.60203 0.48166C7.34771 0.48166 6.70395 0.54566 6.70395 0.54566C6.07521 0.62066 5.40688 0.75776 4.71535 0.99476C4.04591 1.22416 3.22717 1.77976 2.34185 2.43806C2.32677 2.44806 2.29182 2.46106 2.2777 2.47006C2.09127 2.59406 1.9499 2.72106 1.79659 2.85496C1.54108 3.07806 1.31547 3.30256 1.1551 3.49636C1.01824 3.61676 0.928904 3.75466 0.834362 3.91346C0.822492 3.93246 0.770212 4.04176 0.770212 4.04176C0.617104 4.33366 0.489061 4.67436 0.353247 5.03596C0.137341 5.61076 0.0131756 8.52036 0.000429552 8.85286C-5.9448e-05 8.86286 0.000716552 8.91186 0.000429552 8.91686C0.000102552 8.92686 0.000429552 9.04516 0.000429552 9.04516C-0.00347045 9.31536 0.0204696 9.52626 0.0204696 9.52626C0.0204696 9.52626 0.0237696 9.64286 0.0324996 9.68666C0.0579896 9.87766 0.13128 10.4445 0.353243 11.2904C0.523555 11.9396 0.730085 12.6821 1.05888 13.4073C1.60134 14.6039 2.31936 15.7188 3.04748 16.4223C4.71412 18.0326 7.02303 19.2318 9.33404 19.4052C10.538 19.4962 11.6642 19.4622 12.6698 19.3412C14.6032 19.1064 15.8642 18.6634 17.4809 17.5772C18.4164 16.9484 19.5955 15.7265 20.2714 14.4659C20.9254 13.2029 21.2923 11.8248 21.4902 10.4246C21.6403 9.52876 21.6644 8.81286 21.7789 8.05106C21.8698 7.18386 21.606 6.31336 21.3619 5.51726C21.2756 5.21706 21.1694 4.84366 21.1694 4.84366C21.0882 4.48786 20.9316 4.07086 20.8487 3.78526C20.6159 3.32546 20.1784 2.86506 19.9185 2.56636C19.0108 1.52306 16.7432 1.05886 16.7432 1.05886C16.2769 0.96686 15.84 1.02386 15.4602 1.12286C15.3142 1.03586 15.1487 0.96706 15.0112 0.89846C14.4007 0.51456 13.6643 0.33316 13.1188 0.22486C13.0552 0.19786 12.9584 0.16086 12.9584 0.16086C12.5534 0.0233596 11.676 0.000359623 11.2585 0.000559623C11.1193 0.000559623 11.034 0.000559623 11.034 0.000559623Z" />
      <path
         id="path2987"
         transform="translate(6.60168, 3.50856)"
         fill="#00aa00"
         d="M1.51831 5.55114C1.51831 5.55114 2.18528 5.18554 2.96701 4.88764C3.49257 4.68734 4.08751 4.55264 4.50069 4.44854C4.951 4.33504 5.42714 4.22714 5.89027 4.16914C6.16133 4.13514 6.4174 4.11314 6.68777 4.14114C7.36586 4.21114 7.98056 4.61294 8.55699 5.03104C9.22583 5.51604 10.4474 6.63554 10.4474 6.63554C10.4617 6.62154 10.4384 5.37944 10.122 4.91834C9.97029 4.69714 9.76732 4.33024 9.53469 4.06404C9.1967 3.67734 8.8387 3.41814 8.8387 3.41814C8.8387 3.41814 9.13835 3.02904 11.0619 2.96624C11.7674 2.94324 13.1767 3.07474 13.1767 3.07474C13.1767 3.07474 12.4946 2.24754 11.2246 2.09864C10.4333 2.00564 9.62039 2.08864 8.8387 2.24324C8.58261 2.29324 8.09763 2.49634 8.09763 2.49634C8.09763 2.49634 8.46144 1.70154 8.67603 1.32144C8.86253 0.991041 9.29058 0.363441 9.29058 0.363441C9.07462 0.129241 8.74394 -0.0188591 8.188 0.00194092C8.10089 0.0119409 7.34027 0.612041 7.12377 0.978041C6.99011 1.20394 6.6697 1.64674 6.6697 1.64674C7.05348 1.75674 6.99505 2.01814 6.99505 2.24324L6.99505 2.94814C6.93453 2.52994 6.83122 2.25224 6.65162 2.22514C6.26073 2.30914 5.92154 2.35984 5.67557 2.22514C5.49959 2.12914 5.45037 2.13614 5.40444 2.47824L5.29599 3.29164C5.27016 2.83974 5.32252 2.35594 5.32794 1.90404C5.58277 2.02164 6.02847 2.25064 6.54317 2.11674C6.80271 2.04974 6.77145 1.91834 6.72392 1.80944C6.62276 1.57764 6.10741 1.59924 5.97006 1.60844C5.83127 1.61844 5.56712 1.68344 5.56712 1.68344C5.56712 1.68344 4.66546 1.02854 4.17534 0.800841C3.11116 0.306541 2.31361 0.382041 2.31361 0.382041C2.30185 0.353041 3.27679 1.18104 3.72346 1.86414C3.83111 2.02884 4.02654 2.42034 4.02654 2.42034C4.02654 2.42034 2.88562 2.10364 2.33058 2.06084C1.72975 2.01484 1.13107 2.00684 0.542252 2.13484C0.349773 2.17684 0 2.36974 0 2.36974C0.0092 2.33774 1.41493 2.51204 2.09671 2.69514C2.61025 2.83304 3.16621 2.86724 3.65116 3.09274C3.83914 3.18074 4.17136 3.32994 4.15726 3.45424C4.14316 3.57864 3.18286 3.69744 2.76658 3.97314C2.41111 4.20864 2.14888 4.56764 1.89898 4.91304C1.75355 5.11414 1.5183 5.55104 1.5183 5.55104Z" />
      <path
         id="path2985"
         transform="translate(2.22571, 3.2937)"
         fill="#b3b3b3"
         d="M10.5533 0.000798432C10.1592 -0.0102016 8.82997 0.0907984 7.8971 0.407098C8.16039 0.430098 9.06657 0.923898 9.0846 1.0008C8.97769 0.918798 8.00699 0.510298 7.2721 0.469598C8.26154 0.732798 9.73155 1.3544 9.92835 1.6883C9.92835 1.6883 10.5705 1.7153 10.9908 1.6573C11.1285 1.6383 11.1153 1.5315 11.1783 1.4073C11.5022 0.922698 11.9062 0.453098 12.3971 0.157298C12.009 0.0254984 11.1721 0.000798432 10.7721 0.000998432C10.6387 0.00109843 10.5533 0.000998432 10.5533 0.000998432ZM6.3971 0.532098C5.79461 0.604098 5.1535 0.711198 4.49085 0.938298C3.70837 1.2064 2.75411 1.9189 1.67835 2.7508C2.60118 2.6146 3.23197 2.5892 3.67835 2.6568C2.92406 2.7568 2.02797 2.9036 1.5846 3.063C0.811327 3.3412 0.600816 4.021 0.303347 4.813C0.084559 5.3955 0 8.6568 0 8.6568C0.412759 9.2944 0.565193 9.4984 0.959597 9.9636L0.959597 9.0318L1.2721 9.3677L1.2721 10.3128C1.40328 10.4429 1.5436 10.5674 1.67835 10.6878L1.67835 10.1255L1.8971 10.3208L1.8971 10.8864C2.06891 11.0246 2.24306 11.1348 2.36585 11.2484L2.36585 10.6646L2.5846 10.8443L2.5846 11.3992C2.7679 11.5273 2.98043 11.6716 3.17835 11.7758L3.17835 11.2114L3.42835 11.3677L3.42835 11.9304C3.6455 12.0449 3.89001 12.169 4.11585 12.2669L4.11585 11.7036L4.36585 11.813L4.36585 12.3753C4.67246 12.5095 4.85117 12.5163 5.0846 12.64L5.0846 11.7075L5.55335 11.8638L5.55335 12.7963C5.74981 12.8553 5.94747 12.9138 6.1471 12.9636L6.1471 12.4068L6.3971 12.4718L6.3971 13.0313C6.64292 13.0933 6.89227 13.1464 7.14227 13.188L7.14707 12.6252L7.42832 12.6782L7.42832 13.2411C7.68616 13.2811 7.91963 13.3141 8.17832 13.3401L8.17832 12.7814L8.45957 12.8124L8.45957 13.3656C8.72375 13.3876 8.97529 13.4086 9.24082 13.4226L9.24082 12.8593L9.49082 12.8693L9.49082 13.4303C9.75805 13.4423 9.8816 13.4403 10.1493 13.4403L10.1629 12.2426L10.7742 12.2326L10.7635 13.4261C11.7432 13.3931 12.5845 13.2853 13.5221 13.1117C15.0254 12.8478 16.6465 12.3887 17.9908 11.6191C18.4785 11.3445 19.1548 10.9182 19.6783 10.45C20.1742 9.9709 20.5533 9.5623 20.5533 9.5623C20.5533 9.5623 20.7914 8.3343 20.8346 7.7185C20.9197 6.5045 20.5221 5.4685 20.5221 5.4685C20.4709 4.9617 19.708 4.521 19.1158 4.2185C19.1158 4.2185 19.8677 4.4612 20.2721 4.7185C20.2721 4.7185 20.2387 4.176 19.9596 3.6248C19.7365 3.1843 19.3023 2.7547 19.0533 2.4685C18.1835 1.4688 16.0221 0.999698 16.0221 0.999698C14.7041 0.739998 13.5846 1.6247 13.5846 1.6247C13.5846 1.6247 14.0625 1.1049 14.6471 0.968498C14.6471 0.968498 14.0902 0.698398 13.8033 0.593498C13.8038 0.593498 13.803 0.621498 13.8033 0.624498C13.3852 1.2022 12.9737 1.8114 12.7096 2.4683C13.2525 2.2675 13.8483 2.1919 14.4596 2.1558C15.4677 2.1558 16.721 2.2746 17.5221 3.062C17.6428 3.126 17.8658 3.4995 17.8658 3.4995C17.8034 3.4165 16.3663 3.2621 15.8033 3.312C15.0199 3.325 14.1916 3.345 13.4596 3.6558C13.8444 3.9652 14.1741 4.3266 14.4283 4.7495C14.8594 5.2752 14.8986 5.7861 14.9596 6.437C14.9725 6.5744 14.8971 7.0933 14.8971 7.0933C14.8971 7.0933 13.2054 5.5615 12.3033 4.9995C11.692 4.5812 10.942 4.3731 10.2096 4.5308C8.68612 4.7956 7.34098 5.1864 5.55333 6.0308C5.55333 6.0308 6.19323 5.0028 6.45958 4.6558C6.81188 4.1548 7.36962 3.8698 7.95958 3.7495C8.62903 3.7015 8.01869 3.438 7.70958 3.3433C6.89087 3.1549 6.0604 2.9554 5.24083 2.7808C5.04348 2.7388 4.05333 2.6558 4.05333 2.6558C4.05333 2.6558 4.4695 2.3143 4.70958 2.2808C5.8033 1.9696 6.97101 2.1023 8.05333 2.4058C8.12229 2.2305 7.6605 1.765 7.45958 1.5308C7.12893 1.0493 6.4836 0.589298 6.39708 0.530798ZM5.5221 6.2196C5.07114 6.7641 4.53424 7.2135 4.2096 9.0008C4.10676 7.9163 4.53449 6.8952 5.5221 6.2196ZM14.9596 7.1883C15.3523 7.7423 15.7696 8.2872 15.5533 9.8758C15.434 8.9384 15.2705 8.0299 14.9596 7.1883Z" />
      <path
         id="path2983"
         transform="translate(2.22107, 12.4303)"
         fill="#b3b3b3"
         d="M0 0C0 0 0.04565 0.7203 0.298158 1.6826C0.461359 2.3046 0.691387 3.0276 1.00645 3.7225C1.52626 4.869 2.21926 5.9331 2.91698 6.6072C4.51402 8.1503 6.72193 9.2974 8.93642 9.4635C10.0901 9.5505 11.1708 9.5265 12.1344 9.4095C13.9871 9.1844 15.1939 8.7486 16.743 7.7077C17.6395 7.1053 18.7651 5.9487 19.4127 4.7407C20.414 2.8731 20.5768 0.8753 20.5768 0.8753C20.5868 0.8853 20.4124 1.0688 20.1329 1.3533C19.9099 1.5802 19.6227 1.8814 19.2881 2.1372C19.0412 2.3261 18.7553 2.511 18.4382 2.7051C18.0573 2.9383 17.6298 3.1795 17.1479 3.3871C16.2105 3.8014 15.2904 4.1122 14.1513 4.3387C13.4855 4.4711 12.8117 4.6016 12.1344 4.6618C11.3067 4.7358 10.4701 4.7939 9.64006 4.7758C8.46356 4.7498 7.29638 4.5943 6.15287 4.3124C5.34001 4.1019 4.53747 3.807 3.80591 3.462C3.24215 3.1962 2.72504 2.8426 2.23058 2.4779C1.83082 2.1831 1.24165 1.6439 0.833482 1.1448C0.512769 0.7527 0.278481 0.3903 0 0ZM10.4832 5.5602L11.7485 6.8255L9.24325 6.8255Z" />
    </g>
       id="g3636"
       transform="translate(1.37779, 3.90149)"
       fill="none" />
  </g>
</svg>
